<svg xmlns="http://www.w3.org/2000/svg" xmlns:xlink="http://www.w3.org/1999/xlink" width="2048" height="2048"><style>polyline { fill:none; stroke:black; stroke-width:1.000000; }polyline["window"] { stroke:red; }</style><polyline points="448.228292,596.800096 447.996378,593.335652"/><polyline points="812.977734,551.458874 809.780025,550.696487"/><polyline points="806.405220,550.356827 809.780025,550.696487"/><polyline points="423.174400,556.547899 423.442497,556.698728"/><polyline points="423.174400,556.547899 422.471581,556.152506"/><polyline points="448.442497,600.000000 448.210526,603.465210"/><polyline points="806.405220,649.643173 803.137283,649.972076"/><polyline points="799.745312,649.858623 803.137283,649.972076"/><polyline points="426.799641,641.105142 428.101482,640.253501"/><polyline points="426.799641,641.105142 423.442497,643.301272"/><polyline points="448.442497,600.000000 448.442497,600.000000"/><polyline points="760.333424,571.798277 762.244892,569.012506"/><polyline points="764.453583,566.569378 762.244892,569.012506"/><polyline points="760.333424,628.201723 762.244892,630.987494"/><polyline points="764.453583,633.430622 762.244892,630.987494"/><polyline points="423.442497,556.698728 424.774551,557.570114"/><polyline points="448.228292,596.800096 448.442497,600.000000"/><polyline points="372.820091,557.076802 371.538391,557.855387"/><polyline points="366.161098,561.817391 371.538391,557.855387"/><polyline points="366.161098,561.817391 366.161118,561.817391"/><polyline points="361.359882,566.460767 366.161118,561.817391"/><polyline points="361.359882,566.460767 361.359901,566.460764"/><polyline points="357.220402,571.702645 361.359901,566.460764"/><polyline points="357.220402,571.702645 357.220402,571.702647"/><polyline points="353.816566,577.449493 357.220402,571.702647"/><polyline points="351.209049,583.598756 353.816566,577.449493"/><polyline points="351.209049,583.598756 351.209068,583.598756"/><polyline points="349.444408,590.040701 351.209068,583.598756"/><polyline points="348.554153,596.660368 349.444408,590.040701"/><polyline points="348.554153,596.660368 348.497696,598.349680"/><polyline points="348.499031,601.690537 348.554153,603.339632"/><polyline points="349.444408,609.959299 348.554153,603.339632"/><polyline points="836.109390,635.884516 833.734226,638.182607"/><polyline points="831.015549,640.186653 833.734226,638.182607"/><polyline points="403.447285,649.748893 396.771755,649.972076"/><polyline points="373.442497,556.698728 374.734802,556.027517"/><polyline points="348.442497,600.000000 348.497696,598.349680"/><polyline points="372.820091,557.076802 373.442497,556.698728"/><polyline points="376.149998,644.707503 377.395763,645.354548"/><polyline points="383.628712,647.755127 377.395763,645.354548"/><polyline points="390.126038,649.303513 383.628712,647.755127"/><polyline points="396.771755,649.972076 390.126038,649.303513"/><polyline points="373.442497,643.301272 372.171745,642.529345"/><polyline points="423.442497,643.301272 422.741146,643.695850"/><polyline points="831.015549,559.813347 833.734226,561.817393"/><polyline points="836.109390,564.115484 833.734226,561.817393"/><polyline points="806.405220,550.356827 803.137283,550.027924"/><polyline points="799.745312,550.141377 803.137283,550.027924"/><polyline points="756.946478,622.471559 758.466463,625.480833"/><polyline points="760.333424,628.201723 758.466463,625.480833"/><polyline points="754.352627,616.342238 755.455399,619.519464"/><polyline points="756.946478,622.471559 755.455399,619.519464"/><polyline points="752.597599,609.922798 753.265419,613.209770"/><polyline points="754.352627,616.342238 753.265419,613.209770"/><polyline points="751.712303,603.327277 751.935596,606.664348"/><polyline points="752.597599,609.922798 751.935596,606.664348"/><polyline points="752.597599,590.077202 751.935596,593.335652"/><polyline points="751.557503,600.000000 751.935596,593.335652"/><polyline points="754.352627,583.657762 753.265419,586.790230"/><polyline points="752.597599,590.077202 753.265419,586.790230"/><polyline points="756.946478,577.528441 755.455399,580.480536"/><polyline points="754.352627,583.657762 755.455399,580.480536"/><polyline points="760.333424,571.798277 758.466463,574.519167"/><polyline points="756.946478,577.528441 758.466463,574.519167"/><polyline points="769.234028,561.935127 766.723232,564.058816"/><polyline points="764.453583,566.569378 766.723232,564.058816"/><polyline points="774.589939,557.978454 771.821575,559.746499"/><polyline points="769.234028,561.935127 771.821575,559.746499"/><polyline points="780.426159,554.770322 777.448959,556.152506"/><polyline points="774.589939,557.978454 777.448959,556.152506"/><polyline points="786.638756,552.368417 783.504944,553.340969"/><polyline points="780.426159,554.770322 783.504944,553.340969"/><polyline points="793.117008,550.816054 789.881477,551.362066"/><polyline points="786.638756,552.368417 789.881477,551.362066"/><polyline points="799.745312,550.141377 796.464748,550.251107"/><polyline points="793.117008,550.816054 796.464748,550.251107"/><polyline points="819.345284,553.428121 816.274433,552.244873"/><polyline points="812.977734,551.458874 816.274433,552.244873"/><polyline points="825.393963,556.229577 822.504616,554.645452"/><polyline points="819.345284,553.428121 822.504616,554.645452"/><polyline points="831.015549,559.813347 828.359375,557.855387"/><polyline points="825.393963,556.229577 828.359375,557.855387"/><polyline points="840.584335,569.059169 838.533306,566.460764"/><polyline points="836.109390,564.115484 838.533306,566.460764"/><polyline points="844.360256,574.556067 842.670918,571.702645"/><polyline points="840.584335,569.059169 842.670918,571.702645"/><polyline points="847.369556,580.507927 846.073265,577.449493"/><polyline points="844.360256,574.556067 846.073265,577.449493"/><polyline points="849.558392,586.808347 848.679619,583.598757"/><polyline points="847.369556,580.507927 848.679619,583.598757"/><polyline points="351.209030,616.401243 349.444408,609.959299"/><polyline points="850.887604,593.344665 850.443420,590.040701"/><polyline points="849.558392,586.808347 850.443420,590.040701"/><polyline points="351.209030,616.401243 351.209068,616.401244"/><polyline points="353.816547,622.550507 351.209068,616.401244"/><polyline points="851.333332,600.000000 851.333332,596.660369"/><polyline points="850.887604,593.344665 851.333332,596.660369"/><polyline points="353.816547,622.550507 353.816566,622.550507"/><polyline points="357.220440,628.297355 353.816566,622.550507"/><polyline points="850.887604,606.655335 851.333332,603.339631"/><polyline points="851.333332,600.000000 851.333332,603.339631"/><polyline points="357.220440,628.297355 357.220402,628.297353"/><polyline points="361.359901,633.539236 357.220402,628.297353"/><polyline points="849.558392,613.191653 850.443420,609.959299"/><polyline points="850.887604,606.655335 850.443420,609.959299"/><polyline points="366.161098,638.182607 361.359901,633.539236"/><polyline points="847.369556,619.492073 848.679619,616.401243"/><polyline points="849.558392,613.191653 848.679619,616.401243"/><polyline points="366.161098,638.182607 366.161118,638.182609"/><polyline points="371.538391,642.144613 366.161118,638.182609"/><polyline points="844.360256,625.443933 846.073265,622.550507"/><polyline points="847.369556,619.492073 846.073265,622.550507"/><polyline points="371.538391,642.144613 372.171745,642.529345"/><polyline points="840.584335,630.940831 842.670918,628.297355"/><polyline points="844.360256,625.443933 842.670918,628.297355"/><polyline points="348.442497,600.000000 348.442497,600.000000"/><polyline points="836.109390,635.884516 838.533306,633.539236"/><polyline points="840.584335,630.940831 838.533306,633.539236"/><polyline points="348.499031,601.690537 348.442497,600.000000"/><polyline points="825.393963,643.770423 828.359375,642.144613"/><polyline points="831.015549,640.186653 828.359375,642.144613"/><polyline points="819.345284,646.571879 822.504616,645.354548"/><polyline points="825.393963,643.770423 822.504616,645.354548"/><polyline points="410.033512,648.637934 403.447285,649.748893"/><polyline points="812.977734,648.541126 816.274433,647.755127"/><polyline points="819.345284,646.571879 816.274433,647.755127"/><polyline points="416.412888,646.659031 410.033512,648.637934"/><polyline points="806.405220,649.643173 809.780025,649.303513"/><polyline points="812.977734,648.541126 809.780025,649.303513"/><polyline points="422.471581,643.847494 416.412888,646.659031"/><polyline points="422.471581,643.847494 422.741146,643.695850"/><polyline points="793.117008,649.183946 796.464748,649.748893"/><polyline points="799.745312,649.858623 796.464748,649.748893"/><polyline points="786.638756,647.631583 789.881477,648.637934"/><polyline points="793.117008,649.183946 789.881477,648.637934"/><polyline points="437.682476,630.987494 433.202114,635.941184"/><polyline points="780.426159,645.229678 783.504944,646.659031"/><polyline points="786.638756,647.631583 783.504944,646.659031"/><polyline points="441.462574,625.480833 437.682476,630.987494"/><polyline points="774.589939,642.021546 777.448959,643.847494"/><polyline points="780.426159,645.229678 777.448959,643.847494"/><polyline points="441.462574,625.480833 441.462584,625.480833"/><polyline points="444.474993,619.519464 441.462584,625.480833"/><polyline points="769.234028,638.064873 771.821575,640.253501"/><polyline points="774.589939,642.021546 771.821575,640.253501"/><polyline points="446.665945,613.209770 444.474993,619.519464"/><polyline points="764.453583,633.430622 766.723232,635.941184"/><polyline points="769.234028,638.064873 766.723232,635.941184"/><polyline points="446.665945,613.209770 446.665955,613.209770"/><polyline points="447.996378,606.664348 446.665955,613.209770"/><polyline points="447.996378,606.664348 448.210526,603.465210"/><polyline points="751.712303,603.327277 751.557503,600.000000"/><polyline points="433.202114,635.941184 428.101482,640.253501"/><polyline points="376.149998,644.707503 373.442497,643.301272"/><polyline points="377.395763,554.645452 374.734802,556.027517"/><polyline points="377.395763,554.645452 383.628712,552.244873"/><polyline points="383.628712,552.244873 390.126038,550.696487"/><polyline points="390.126038,550.696487 396.771755,550.027924"/><polyline points="396.771755,550.027924 403.447285,550.251107"/><polyline points="403.447285,550.251107 410.033512,551.362066"/><polyline points="416.412888,553.340969 422.471581,556.152506"/><polyline points="410.033512,551.362066 416.412888,553.340969"/><polyline points="428.101482,559.746499 424.774551,557.570114"/><polyline points="428.101482,559.746499 433.202114,564.058816"/><polyline points="433.202114,564.058816 437.682476,569.012506"/><polyline points="437.682476,569.012506 441.462584,574.519167"/><polyline points="441.462584,574.519167 444.474993,580.480536"/><polyline points="444.474993,580.480536 446.665955,586.790230"/><polyline points="446.665945,586.790230 446.665955,586.790230"/><polyline points="446.665945,586.790230 447.996378,593.335652"/></svg>