<svg xmlns="http://www.w3.org/2000/svg" xmlns:xlink="http://www.w3.org/1999/xlink" width="2048" height="2048"><style> polyline { fill:none; stroke:black; stroke-width:1.000000; } </style><polyline points="448.713770,590.936232 448.644543,593.249333"/><polyline points="449.138985,586.211703 448.713770,590.936232"/><polyline points="536.291709,462.482986 528.181643,466.539145"/><polyline points="803.423958,452.203836 798.822498,446.253309"/><polyline points="803.423958,452.203836 807.661324,458.418913"/><polyline points="711.099510,703.085279 704.735727,709.544983"/><polyline points="455.263481,805.612144 461.541252,809.756069"/><polyline points="455.263481,805.612144 449.244776,801.100216"/><polyline points="448.544579,603.410827 448.442497,600.000000"/><polyline points="528.181643,733.460855 524.221249,731.252642"/><polyline points="794.221039,759.697218 789.271946,765.361919"/><polyline points="794.221039,759.697218 798.822498,753.746691"/><polyline points="717.065582,503.743439 711.099510,496.914721"/><polyline points="467.819004,386.100025 474.333353,382.338982"/><polyline points="467.819004,386.100025 461.541252,390.243931"/><polyline points="448.544579,603.410827 448.713770,609.063768"/><polyline points="566.247602,849.170227 558.827100,847.937965"/><polyline points="566.247602,849.170227 573.728514,849.956493"/><polyline points="746.095800,640.319881 743.423014,648.984847"/><polyline points="712.475033,375.112514 719.098978,378.677006"/><polyline points="712.475033,375.112514 705.649776,371.950550"/><polyline points="480.107250,507.288599 474.777317,514.624624"/><polyline points="448.442497,600.000000 448.644543,593.249333"/><polyline points="566.247602,350.829773 558.827100,352.062035"/><polyline points="566.247602,350.829773 573.728514,350.043507"/><polyline points="746.095800,559.680119 743.423014,551.015153"/><polyline points="712.475033,824.887486 719.098978,821.322994"/><polyline points="712.475033,824.887486 705.649776,828.049450"/><polyline points="480.107250,692.711401 474.777317,685.375376"/><polyline points="348.442497,600.000000 349.004211,584.962494"/><polyline points="570.710616,748.700390 561.870139,746.682615"/><polyline points="832.663918,695.354662 829.604397,702.226458"/><polyline points="832.663918,695.354662 835.307007,688.312187"/><polyline points="683.492565,473.514166 675.778751,468.747358"/><polyline points="410.643311,434.564037 415.759659,429.049931"/><polyline points="410.643311,434.564037 405.865879,440.374260"/><polyline points="683.492565,726.485834 675.778751,731.252642"/><polyline points="832.663918,504.645338 835.307007,511.687813"/><polyline points="832.663918,504.645338 829.604397,497.773542"/><polyline points="570.710616,451.299610 561.870139,453.317385"/><polyline points="401.088467,753.815536 405.865879,759.625740"/><polyline points="401.088467,753.815536 396.667080,747.730007"/><polyline points="751.516914,597.286994 751.489677,595.466087"/><polyline points="641.191335,351.951046 648.571649,353.404751"/><polyline points="641.191335,351.951046 633.737292,350.941315"/><polyline points="458.106585,546.746511 455.175772,555.327644"/><polyline points="751.557503,600.000000 751.528378,601.946869"/><polyline points="641.191335,848.048954 648.571649,846.595249"/><polyline points="641.191335,848.048954 633.737292,849.058685"/><polyline points="458.106585,653.253489 455.175772,644.672356"/><polyline points="401.088467,446.184464 405.865879,440.374260"/><polyline points="401.088467,446.184464 396.667080,452.269993"/><polyline points="528.181643,466.539145 524.221249,468.747358"/><polyline points="794.221039,440.302782 789.271946,434.638081"/><polyline points="794.221039,440.302782 798.822498,446.253309"/><polyline points="717.065582,696.256561 711.099510,703.085279"/><polyline points="467.819004,813.899975 474.333353,817.661018"/><polyline points="467.819004,813.899975 461.541252,809.756069"/><polyline points="449.138985,586.211703 449.526596,581.904910"/><polyline points="581.209428,349.257240 573.728514,350.043507"/><polyline points="581.209428,349.257240 588.723974,348.919773"/><polyline points="748.245602,568.489423 746.095800,559.680119"/><polyline points="698.824511,831.211433 705.649776,828.049450"/><polyline points="698.824511,831.211433 691.822367,833.959579"/><polyline points="474.777317,685.375376 469.895639,677.733731"/><polyline points="450.878086,572.938364 449.526596,581.904910"/><polyline points="596.238519,348.582287 588.723974,348.919773"/><polyline points="596.238519,348.582287 603.759798,348.694801"/><polyline points="749.864731,577.411528 748.245602,568.489423"/><polyline points="684.820223,836.707706 691.822367,833.959579"/><polyline points="684.820223,836.707706 677.666259,839.032173"/><polyline points="469.895639,677.733731 465.479717,669.813819"/><polyline points="452.763405,564.068692 450.878086,572.938364"/><polyline points="611.281075,348.807335 603.759798,348.694801"/><polyline points="611.281075,348.807335 618.782160,349.369469"/><polyline points="750.947361,586.414491 750.922995,586.211703"/><polyline points="749.864731,577.411528 750.922995,586.211703"/><polyline points="670.512300,841.356659 677.666259,839.032173"/><polyline points="670.512300,841.356659 663.232126,843.249111"/><polyline points="465.479717,669.813819 461.545334,661.643987"/><polyline points="455.175772,555.327644 452.763405,564.068692"/><polyline points="626.283247,349.931602 618.782160,349.369469"/><polyline points="626.283247,349.931602 633.737292,350.941315"/><polyline points="750.947361,586.414491 751.489677,595.466087"/><polyline points="655.951962,845.141563 663.232126,843.249111"/><polyline points="655.951962,845.141563 648.571649,846.595249"/><polyline points="461.545334,661.643987 458.106585,653.253489"/><polyline points="461.545334,538.356013 458.106585,546.746511"/><polyline points="655.951962,354.858437 648.571649,353.404751"/><polyline points="655.951962,354.858437 663.232126,356.750889"/><polyline points="751.489677,604.533913 751.528378,601.946869"/><polyline points="465.479717,530.186181 461.545334,538.356013"/><polyline points="670.512300,358.643341 663.232126,356.750889"/><polyline points="670.512300,358.643341 677.666259,360.967827"/><polyline points="750.947361,613.585509 749.864731,622.588472"/><polyline points="611.281075,851.192665 618.782160,850.630531"/><polyline points="611.281075,851.192665 603.759798,851.305199"/><polyline points="452.763405,635.931308 450.878086,627.061636"/><polyline points="469.895639,522.266269 465.479717,530.186181"/><polyline points="684.820223,363.292294 677.666259,360.967827"/><polyline points="684.820223,363.292294 691.822367,366.040421"/><polyline points="749.864731,622.588472 748.245602,631.510577"/><polyline points="596.238519,851.417713 603.759798,851.305199"/><polyline points="596.238519,851.417713 588.723974,851.080227"/><polyline points="450.878086,627.061636 449.526596,618.095090"/><polyline points="474.777317,514.624624 469.895639,522.266269"/><polyline points="698.824511,368.788567 691.822367,366.040421"/><polyline points="698.824511,368.788567 705.649776,371.950550"/><polyline points="748.245602,631.510577 746.095800,640.319881"/><polyline points="581.209428,850.742760 588.723974,851.080227"/><polyline points="581.209428,850.742760 573.728514,849.956493"/><polyline points="449.526596,618.095090 448.713770,609.063768"/><polyline points="485.866375,500.284452 480.107250,507.288599"/><polyline points="725.722923,382.241516 719.098978,378.677006"/><polyline points="725.722923,382.241516 732.121840,386.195774"/><polyline points="743.423014,648.984847 740.236807,657.474465"/><polyline points="551.406603,846.705704 558.827100,847.937965"/><polyline points="551.406603,846.705704 544.073076,845.031853"/><polyline points="492.034063,493.637266 485.866375,500.284452"/><polyline points="738.520756,390.150032 732.121840,386.195774"/><polyline points="738.520756,390.150032 744.671736,394.479866"/><polyline points="740.236807,657.474465 736.548595,665.758333"/><polyline points="536.739550,843.358021 544.073076,845.031853"/><polyline points="536.739550,843.358021 529.519253,841.248627"/><polyline points="498.588238,487.370825 492.034063,493.637266"/><polyline points="750.822725,398.809738 744.671736,394.479866"/><polyline points="750.822725,398.809738 756.703749,403.499718"/><polyline points="736.548595,665.758333 732.371559,673.806815"/><polyline points="522.298961,839.139214 529.519253,841.248627"/><polyline points="522.298961,839.139214 515.217733,836.601772"/><polyline points="505.505447,481.507578 498.588238,487.370825"/><polyline points="762.584782,408.189678 756.703749,403.499718"/><polyline points="762.584782,408.189678 768.174801,413.222961"/><polyline points="732.371559,673.806815 727.720680,681.591072"/><polyline points="508.136520,834.064331 515.217733,836.601772"/><polyline points="508.136520,834.064331 501.219721,831.107941"/><polyline points="512.760916,476.068506 505.505447,481.507578"/><polyline points="773.764839,418.256245 768.174801,413.222961"/><polyline points="773.764839,418.256245 779.043827,423.614807"/><polyline points="727.720680,681.591072 722.612591,689.083261"/><polyline points="494.302921,828.151569 501.219721,831.107941"/><polyline points="494.302921,828.151569 487.575312,824.786816"/><polyline points="520.328679,471.073046 512.760916,476.068506"/><polyline points="784.322853,428.973389 779.043827,423.614807"/><polyline points="784.322853,428.973389 789.271946,434.638081"/><polyline points="722.612591,689.083261 717.065582,696.256561"/><polyline points="480.847692,821.422081 487.575312,824.786816"/><polyline points="480.847692,821.422081 474.333353,817.661018"/><polyline points="524.221249,468.747358 520.328679,471.073046"/><polyline points="544.629827,458.919106 536.291709,462.482986"/><polyline points="811.898689,464.633970 807.661324,458.418913"/><polyline points="811.898689,464.633970 815.756779,471.091328"/><polyline points="704.735727,709.544983 697.997017,715.612545"/><polyline points="443.226070,796.588268 449.244776,801.100216"/><polyline points="443.226070,796.588268 437.487984,791.724472"/><polyline points="553.166156,455.860252 544.629827,458.919106"/><polyline points="819.614868,477.548685 815.756779,471.091328"/><polyline points="819.614868,477.548685 823.079872,484.225216"/><polyline points="697.997017,715.612545 690.907507,721.266241"/><polyline points="431.749897,786.860676 437.487984,791.724472"/><polyline points="431.749897,786.860676 426.312943,781.662426"/><polyline points="561.870139,453.317385 553.166156,455.860252"/><polyline points="826.544876,490.901737 823.079872,484.225216"/><polyline points="826.544876,490.901737 829.604397,497.773542"/><polyline points="690.907507,721.266241 683.492565,726.485834"/><polyline points="420.875988,776.464157 426.312943,781.662426"/><polyline points="420.875988,776.464157 415.759659,770.950069"/><polyline points="579.655943,449.814129 570.710616,451.299610"/><polyline points="837.950096,518.730278 835.307007,511.687813"/><polyline points="837.950096,518.730278 840.167274,525.918217"/><polyline points="675.778751,731.252642 667.793665,735.549603"/><polyline points="588.674093,448.866272 579.655943,449.814129"/><polyline points="842.384453,533.106146 840.167274,525.918217"/><polyline points="842.384453,533.106146 844.167786,540.413809"/><polyline points="667.793665,735.549603 659.565892,739.361343"/><polyline points="392.245693,741.644487 396.667080,747.730007"/><polyline points="392.245693,741.644487 388.196144,735.305433"/><polyline points="597.732790,448.459473 588.674093,448.866272"/><polyline points="845.951157,547.721472 844.167786,540.413809"/><polyline points="845.951157,547.721472 847.294292,555.122709"/><polyline points="659.565892,739.361343 651.124887,742.674189"/><polyline points="384.146614,728.966389 388.196144,735.305433"/><polyline points="384.146614,728.966389 380.483437,722.396498"/><polyline points="349.004211,584.962494 349.678497,577.470658"/><polyline points="606.799601,448.595104 597.732790,448.459473"/><polyline points="848.637409,562.523942 847.294292,555.122709"/><polyline points="848.637409,562.523942 849.535503,569.992254"/><polyline points="651.124887,742.674189 642.500873,745.476303"/><polyline points="376.820240,715.826626 380.483437,722.396498"/><polyline points="376.820240,715.826626 373.556519,709.049435"/><polyline points="350.352783,569.978819 351.473904,562.540715"/><polyline points="350.352783,569.978819 349.678497,577.470658"/><polyline points="615.842074,449.272757 606.799601,448.595104"/><polyline points="850.433598,577.460568 849.535503,569.992254"/><polyline points="850.433598,577.460568 850.883446,584.969224"/><polyline points="642.500873,745.476303 633.724716,747.757626"/><polyline points="370.292797,702.272234 373.556519,709.049435"/><polyline points="370.292797,702.272234 367.440224,695.311985"/><polyline points="352.594986,555.102611 354.158936,547.744870"/><polyline points="352.594986,555.102611 351.473904,562.540715"/><polyline points="624.827833,450.489960 615.842074,449.272757"/><polyline points="851.333294,592.477881 850.883446,584.969224"/><polyline points="851.333294,592.477881 851.333294,600.000000"/><polyline points="633.724716,747.757626 624.827833,749.510040"/><polyline points="364.587631,688.351736 367.440224,695.311985"/><polyline points="364.587631,688.351736 362.156429,681.233349"/><polyline points="355.722866,540.387125 357.724037,533.136086"/><polyline points="355.722866,540.387125 354.158936,547.744870"/><polyline points="633.724716,452.242374 624.827833,450.489960"/><polyline points="851.333294,607.522119 851.333294,600.000000"/><polyline points="851.333294,607.522119 850.883446,615.030776"/><polyline points="624.827833,749.510040 615.842074,750.727243"/><polyline points="359.725208,674.114957 362.156429,681.233349"/><polyline points="359.725208,674.114957 357.724037,666.863914"/><polyline points="359.725208,525.885043 362.156429,518.766651"/><polyline points="359.725208,525.885043 357.724037,533.136086"/><polyline points="642.500873,454.523697 633.724716,452.242374"/><polyline points="850.433598,622.539432 850.883446,615.030776"/><polyline points="850.433598,622.539432 849.535503,630.007746"/><polyline points="615.842074,750.727243 606.799601,751.404896"/><polyline points="355.722866,659.612875 357.724037,666.863914"/><polyline points="355.722866,659.612875 354.158936,652.255130"/><polyline points="364.587631,511.648264 367.440224,504.688015"/><polyline points="364.587631,511.648264 362.156429,518.766651"/><polyline points="651.124887,457.325811 642.500873,454.523697"/><polyline points="848.637409,637.476058 849.535503,630.007746"/><polyline points="848.637409,637.476058 847.294292,644.877291"/><polyline points="606.799601,751.404896 597.732790,751.540527"/><polyline points="352.594986,644.897389 354.158936,652.255130"/><polyline points="352.594986,644.897389 351.473904,637.459285"/><polyline points="370.292797,497.727766 373.556519,490.950565"/><polyline points="370.292797,497.727766 367.440224,504.688015"/><polyline points="659.565892,460.638657 651.124887,457.325811"/><polyline points="845.951157,652.278528 847.294292,644.877291"/><polyline points="845.951157,652.278528 844.167786,659.586191"/><polyline points="597.732790,751.540527 588.674093,751.133728"/><polyline points="350.352783,630.021181 351.473904,637.459285"/><polyline points="350.352783,630.021181 349.678497,622.529342"/><polyline points="376.820240,484.173374 380.483437,477.603502"/><polyline points="376.820240,484.173374 373.556519,490.950565"/><polyline points="667.793665,464.450397 659.565892,460.638657"/><polyline points="842.384453,666.893854 844.167786,659.586191"/><polyline points="842.384453,666.893854 840.167274,674.081783"/><polyline points="588.674093,751.133728 579.655943,750.185871"/><polyline points="349.004211,615.037506 349.678497,622.529342"/><polyline points="349.004211,615.037506 348.442497,600.000000"/><polyline points="384.146614,471.033611 388.196144,464.694567"/><polyline points="384.146614,471.033611 380.483437,477.603502"/><polyline points="675.778751,468.747358 667.793665,464.450397"/><polyline points="837.950096,681.269722 840.167274,674.081783"/><polyline points="837.950096,681.269722 835.307007,688.312187"/><polyline points="579.655943,750.185871 570.710616,748.700390"/><polyline points="392.245693,458.355513 396.667080,452.269993"/><polyline points="392.245693,458.355513 388.196144,464.694567"/><polyline points="690.907507,478.733759 683.492565,473.514166"/><polyline points="826.544876,709.098263 829.604397,702.226458"/><polyline points="826.544876,709.098263 823.079872,715.774784"/><polyline points="561.870139,746.682615 553.166156,744.139748"/><polyline points="697.997017,484.387455 690.907507,478.733759"/><polyline points="819.614868,722.451315 823.079872,715.774784"/><polyline points="819.614868,722.451315 815.756779,728.908672"/><polyline points="553.166156,744.139748 544.629827,741.080894"/><polyline points="420.875988,423.535843 426.312943,418.337574"/><polyline points="420.875988,423.535843 415.759659,429.049931"/><polyline points="704.735727,490.455017 697.997017,484.387455"/><polyline points="811.898689,735.366030 815.756779,728.908672"/><polyline points="811.898689,735.366030 807.661324,741.581087"/><polyline points="544.629827,741.080894 536.291709,737.517014"/><polyline points="431.749897,413.139324 437.487984,408.275528"/><polyline points="431.749897,413.139324 426.312943,418.337574"/><polyline points="711.099510,496.914721 704.735727,490.455017"/><polyline points="803.423958,747.796164 807.661324,741.581087"/><polyline points="803.423958,747.796164 798.822498,753.746691"/><polyline points="536.291709,737.517014 528.181643,733.460855"/><polyline points="443.226070,403.411732 449.244776,398.899784"/><polyline points="443.226070,403.411732 437.487984,408.275528"/><polyline points="455.263481,394.387856 461.541252,390.243931"/><polyline points="455.263481,394.387856 449.244776,398.899784"/><polyline points="722.612591,510.916739 717.065582,503.743439"/><polyline points="784.322853,771.026611 789.271946,765.361919"/><polyline points="784.322853,771.026611 779.043827,776.385193"/><polyline points="524.221249,731.252642 520.328679,728.926954"/><polyline points="727.720680,518.408928 722.612591,510.916739"/><polyline points="773.764839,781.743755 779.043827,776.385193"/><polyline points="773.764839,781.743755 768.174801,786.777039"/><polyline points="512.760916,723.931494 505.505447,718.492422"/><polyline points="480.847692,378.577919 487.575312,375.213184"/><polyline points="480.847692,378.577919 474.333353,382.338982"/><polyline points="732.371559,526.193185 727.720680,518.408928"/><polyline points="762.584782,791.810322 768.174801,786.777039"/><polyline points="762.584782,791.810322 756.703749,796.500282"/><polyline points="505.505447,718.492422 498.588238,712.629175"/><polyline points="494.302921,371.848431 501.219721,368.892059"/><polyline points="494.302921,371.848431 487.575312,375.213184"/><polyline points="736.548595,534.241667 732.371559,526.193185"/><polyline points="750.822725,801.190262 756.703749,796.500282"/><polyline points="750.822725,801.190262 744.671736,805.520134"/><polyline points="498.588238,712.629175 492.034063,706.362734"/><polyline points="508.136520,365.935669 515.217733,363.398228"/><polyline points="508.136520,365.935669 501.219721,368.892059"/><polyline points="740.236807,542.525535 736.548595,534.241667"/><polyline points="738.520756,809.849968 744.671736,805.520134"/><polyline points="738.520756,809.849968 732.121840,813.804226"/><polyline points="492.034063,706.362734 485.866375,699.715548"/><polyline points="522.298961,360.860786 529.519253,358.751373"/><polyline points="522.298961,360.860786 515.217733,363.398228"/><polyline points="743.423014,551.015153 740.236807,542.525535"/><polyline points="725.722923,817.758484 732.121840,813.804226"/><polyline points="725.722923,817.758484 719.098978,821.322994"/><polyline points="485.866375,699.715548 480.107250,692.711401"/><polyline points="536.739550,356.641979 544.073076,354.968147"/><polyline points="536.739550,356.641979 529.519253,358.751373"/><polyline points="551.406603,353.294296 558.827100,352.062035"/><polyline points="551.406603,353.294296 544.073076,354.968147"/><polyline points="448.442497,600.000000 448.442497,600.000000"/><polyline points="751.516914,597.286994 751.557503,600.000000"/><polyline points="626.283247,850.068398 633.737292,849.058685"/><polyline points="626.283247,850.068398 618.782160,850.630531"/><polyline points="455.175772,644.672356 452.763405,635.931308"/><polyline points="751.489677,604.533913 750.947361,613.585509"/><polyline points="410.643311,765.435963 415.759659,770.950069"/><polyline points="410.643311,765.435963 405.865879,759.625740"/><polyline points="520.328679,728.926954 512.760916,723.931494"/></svg>