<svg xmlns="http://www.w3.org/2000/svg" xmlns:xlink="http://www.w3.org/1999/xlink" width="4096" height="4096"><style>polyline { fill:none; stroke:#000000; stroke-width:0.250000; }polyline["window"] { stroke:red; }polygon { stroke:#000000; stroke-width:0.250000; }circle { stroke:none }circle[a] { fill:lime; }circle[b_alt] { fill:blue; }circle[c_alt] { fill:red; }</style><defs>
    <linearGradient id="g0" x1="1.000000" y1="0.000000" x2="0.378694" y2="0.498968">
        <stop offset="0"  stop-color="#000000"/>
        <stop offset="0.000000" stop-color="#000000"/>
        <stop offset="1"  stop-color="#ffffff"/>
    </linearGradient>
    
    <linearGradient id="g1" x1="1.000000" y1="0.000000" x2="0.999965" y2="0.500457">
        <stop offset="0"  stop-color="#000000"/>
        <stop offset="-0.014577" stop-color="#000000"/>
        <stop offset="1"  stop-color="#000000"/>
    </linearGradient>
    
    <linearGradient id="g2" x1="1.000000" y1="0.000000" x2="1.000002" y2="1.961015">
        <stop offset="0"  stop-color="#000000"/>
        <stop offset="1.000000" stop-color="#000000"/>
        <stop offset="1"  stop-color="#000000"/>
    </linearGradient>
    
    <linearGradient id="g3" x1="0.691915" y1="0.478286" x2="0.338918" y2="0.497221">
        <stop offset="0"  stop-color="#000000"/>
        <stop offset="0.000009" stop-color="#000000"/>
        <stop offset="1"  stop-color="#ffffff"/>
    </linearGradient>
    
    <linearGradient id="g4" x1="1.000000" y1="0.000000" x2="0.489815" y2="0.036111">
        <stop offset="0"  stop-color="#000000"/>
        <stop offset="0.000009" stop-color="#000000"/>
        <stop offset="1"  stop-color="#ffffff"/>
    </linearGradient>
    
    <linearGradient id="g5" x1="0.000000" y1="1.000000" x2="-0.000006" y2="0.036471">
        <stop offset="0"  stop-color="#000000"/>
        <stop offset="1.000000" stop-color="#000000"/>
        <stop offset="1"  stop-color="#000000"/>
    </linearGradient>
    
    <linearGradient id="g6" x1="1.000000" y1="0.375210" x2="-0.614124" y2="0.500106">
        <stop offset="0"  stop-color="#000000"/>
        <stop offset="-0.000004" stop-color="#000000"/>
        <stop offset="1"  stop-color="#ffffff"/>
    </linearGradient>
    
    <linearGradient id="g7" x1="0.620075" y1="0.000000" x2="-0.380821" y2="0.199933">
        <stop offset="0"  stop-color="#000000"/>
        <stop offset="-0.000007" stop-color="#000000"/>
        <stop offset="1"  stop-color="#ffffff"/>
    </linearGradient>
    
    <linearGradient id="g8" x1="1.000000" y1="1.000000" x2="1.000023" y2="0.197621">
        <stop offset="0"  stop-color="#000000"/>
        <stop offset="1.000000" stop-color="#000000"/>
        <stop offset="1"  stop-color="#000000"/>
    </linearGradient>
    
    <linearGradient id="g9" x1="1.000000" y1="1.000000" x2="1.000000" y2="0.236067">
        <stop offset="0"  stop-color="#000000"/>
        <stop offset="1.000000" stop-color="#000000"/>
        <stop offset="1"  stop-color="#000000"/>
    </linearGradient>
    
    <linearGradient id="g10" x1="0.000000" y1="0.000000" x2="0.000000" y2="0.763930">
        <stop offset="0"  stop-color="#000000"/>
        <stop offset="1.000000" stop-color="#000000"/>
        <stop offset="1"  stop-color="#000000"/>
    </linearGradient>
    
    <linearGradient id="g11" x1="0.000000" y1="0.000000" x2="-0.067687" y2="0.770978">
        <stop offset="0"  stop-color="#000000"/>
        <stop offset="-0.000000" stop-color="#000000"/>
        <stop offset="1"  stop-color="#ffffff"/>
    </linearGradient>
    
    <linearGradient id="g12" x1="1.000000" y1="1.000000" x2="1.000000" y2="0.441682">
        <stop offset="0"  stop-color="#000000"/>
        <stop offset="-10.297018" stop-color="#000000"/>
        <stop offset="1"  stop-color="#000000"/>
    </linearGradient>
    
    <linearGradient id="g13" x1="0.000000" y1="0.000000" x2="-0.000001" y2="0.558333">
        <stop offset="0"  stop-color="#000000"/>
        <stop offset="1.000000" stop-color="#000000"/>
        <stop offset="1"  stop-color="#000000"/>
    </linearGradient>
    
    <linearGradient id="g14" x1="0.000000" y1="0.000000" x2="-0.143989" y2="0.564811">
        <stop offset="0"  stop-color="#000000"/>
        <stop offset="0.000005" stop-color="#000000"/>
        <stop offset="1"  stop-color="#ffffff"/>
    </linearGradient>
    
    <linearGradient id="g15" x1="1.000000" y1="1.000000" x2="1.000001" y2="0.295951">
        <stop offset="0"  stop-color="#000000"/>
        <stop offset="1.000000" stop-color="#000000"/>
        <stop offset="1"  stop-color="#000000"/>
    </linearGradient>
    
    <linearGradient id="g16" x1="0.000002" y1="0.000000" x2="0.000001" y2="0.704070">
        <stop offset="0"  stop-color="#000000"/>
        <stop offset="1.000000" stop-color="#000000"/>
        <stop offset="1"  stop-color="#000000"/>
    </linearGradient>
    
    <linearGradient id="g17" x1="0.000000" y1="0.000000" x2="-0.076981" y2="0.712067">
        <stop offset="0"  stop-color="#000000"/>
        <stop offset="-0.000028" stop-color="#000000"/>
        <stop offset="1"  stop-color="#ffffff"/>
    </linearGradient>
    
    <linearGradient id="g18" x1="1.000000" y1="1.000000" x2="1.000000" y2="0.344559">
        <stop offset="0"  stop-color="#000000"/>
        <stop offset="1.000000" stop-color="#000000"/>
        <stop offset="1"  stop-color="#000000"/>
    </linearGradient>
    
    <linearGradient id="g19" x1="0.000000" y1="0.000000" x2="-0.000000" y2="0.655429">
        <stop offset="0"  stop-color="#000000"/>
        <stop offset="649.996976" stop-color="#000000"/>
        <stop offset="1"  stop-color="#000000"/>
    </linearGradient>
    
    <linearGradient id="g20" x1="0.000000" y1="0.000000" x2="-0.088200" y2="0.663673">
        <stop offset="0"  stop-color="#000000"/>
        <stop offset="-0.000022" stop-color="#000000"/>
        <stop offset="1"  stop-color="#ffffff"/>
    </linearGradient>
    
    <linearGradient id="g21" x1="1.000000" y1="1.000000" x2="0.999999" y2="0.384042">
        <stop offset="0"  stop-color="#000000"/>
        <stop offset="1.000000" stop-color="#000000"/>
        <stop offset="1"  stop-color="#000000"/>
    </linearGradient>
    
    <linearGradient id="g22" x1="0.000000" y1="0.000000" x2="-0.000000" y2="0.615956">
        <stop offset="0"  stop-color="#000000"/>
        <stop offset="1.000000" stop-color="#000000"/>
        <stop offset="1"  stop-color="#000000"/>
    </linearGradient>
    
    <linearGradient id="g23" x1="0.000000" y1="0.000000" x2="-0.102116" y2="0.623944">
        <stop offset="0"  stop-color="#000000"/>
        <stop offset="0.000003" stop-color="#000000"/>
        <stop offset="1"  stop-color="#ffffff"/>
    </linearGradient>
    
    <linearGradient id="g24" x1="1.000000" y1="1.000000" x2="0.999999" y2="0.416014">
        <stop offset="0"  stop-color="#000000"/>
        <stop offset="1.000000" stop-color="#000000"/>
        <stop offset="1"  stop-color="#000000"/>
    </linearGradient>
    
    <linearGradient id="g25" x1="0.000000" y1="0.000000" x2="0.000000" y2="0.583981">
        <stop offset="0"  stop-color="#000000"/>
        <stop offset="1.000000" stop-color="#000000"/>
        <stop offset="1"  stop-color="#000000"/>
    </linearGradient>
    
    <linearGradient id="g26" x1="0.000000" y1="0.000000" x2="-0.119987" y2="0.591347">
        <stop offset="0"  stop-color="#000000"/>
        <stop offset="-0.000001" stop-color="#000000"/>
        <stop offset="1"  stop-color="#ffffff"/>
    </linearGradient>
    
    <linearGradient id="g27" x1="0.999995" y1="1.000000" x2="0.999999" y2="0.477399">
        <stop offset="0"  stop-color="#000000"/>
        <stop offset="-0.229139" stop-color="#000000"/>
        <stop offset="1"  stop-color="#000000"/>
    </linearGradient>
    
    <linearGradient id="g28" x1="0.000005" y1="0.000000" x2="0.000002" y2="0.522612">
        <stop offset="0"  stop-color="#000000"/>
        <stop offset="1.000000" stop-color="#000000"/>
        <stop offset="1"  stop-color="#000000"/>
    </linearGradient>
    
    <linearGradient id="g29" x1="0.000000" y1="0.000000" x2="-0.231358" y2="0.526784">
        <stop offset="0"  stop-color="#000000"/>
        <stop offset="-0.000008" stop-color="#000000"/>
        <stop offset="1"  stop-color="#ffffff"/>
    </linearGradient>
    
    <linearGradient id="g30" x1="1.000000" y1="1.000000" x2="0.999991" y2="0.488638">
        <stop offset="0"  stop-color="#000000"/>
        <stop offset="0.260736" stop-color="#000000"/>
        <stop offset="1"  stop-color="#000000"/>
    </linearGradient>
    
    <linearGradient id="g31" x1="0.000007" y1="0.000000" x2="0.000002" y2="0.511360">
        <stop offset="0"  stop-color="#000000"/>
        <stop offset="1.000000" stop-color="#000000"/>
        <stop offset="1"  stop-color="#000000"/>
    </linearGradient>
    
    <linearGradient id="g32" x1="0.000000" y1="0.000000" x2="-0.326258" y2="0.514204">
        <stop offset="0"  stop-color="#000000"/>
        <stop offset="-0.000006" stop-color="#000000"/>
        <stop offset="1"  stop-color="#ffffff"/>
    </linearGradient>
    
    <linearGradient id="g33" x1="1.000000" y1="1.000000" x2="0.999994" y2="0.495948">
        <stop offset="0"  stop-color="#000000"/>
        <stop offset="-0.841352" stop-color="#000000"/>
        <stop offset="1"  stop-color="#000000"/>
    </linearGradient>
    
    <linearGradient id="g34" x1="0.000000" y1="0.000000" x2="-0.000004" y2="0.504036">
        <stop offset="0"  stop-color="#000000"/>
        <stop offset="1.000000" stop-color="#000000"/>
        <stop offset="1"  stop-color="#000000"/>
    </linearGradient>
    
    <linearGradient id="g35" x1="0.000000" y1="0.000000" x2="-0.546398" y2="0.505481">
        <stop offset="0"  stop-color="#000000"/>
        <stop offset="0.000007" stop-color="#000000"/>
        <stop offset="1"  stop-color="#ffffff"/>
    </linearGradient>
    
    <linearGradient id="g36" x1="1.000000" y1="1.000000" x2="1.000000" y2="0.069536">
        <stop offset="0"  stop-color="#000000"/>
        <stop offset="7.573914" stop-color="#000000"/>
        <stop offset="1"  stop-color="#000000"/>
    </linearGradient>
    
    <linearGradient id="g37" x1="0.000000" y1="0.000000" x2="0.000001" y2="0.930468">
        <stop offset="0"  stop-color="#000000"/>
        <stop offset="1.000000" stop-color="#000000"/>
        <stop offset="1"  stop-color="#000000"/>
    </linearGradient>
    
    <linearGradient id="g38" x1="0.000000" y1="0.000000" x2="-0.053000" y2="0.932190">
        <stop offset="0"  stop-color="#000000"/>
        <stop offset="0.000010" stop-color="#000000"/>
        <stop offset="1"  stop-color="#ffffff"/>
    </linearGradient>
    
    <linearGradient id="g39" x1="1.000000" y1="1.000000" x2="0.999999" y2="0.161962">
        <stop offset="0"  stop-color="#000000"/>
        <stop offset="1.000000" stop-color="#000000"/>
        <stop offset="1"  stop-color="#000000"/>
    </linearGradient>
    
    <linearGradient id="g40" x1="0.000000" y1="0.000000" x2="0.000001" y2="0.838048">
        <stop offset="0"  stop-color="#000000"/>
        <stop offset="1.000000" stop-color="#000000"/>
        <stop offset="1"  stop-color="#000000"/>
    </linearGradient>
    
    <linearGradient id="g41" x1="0.000000" y1="0.000000" x2="-0.059809" y2="0.843151">
        <stop offset="0"  stop-color="#000000"/>
        <stop offset="-0.000024" stop-color="#000000"/>
        <stop offset="1"  stop-color="#ffffff"/>
    </linearGradient>
    
    <linearGradient id="g42" x1="1.000000" y1="1.000000" x2="1.000001" y2="0.461918">
        <stop offset="0"  stop-color="#000000"/>
        <stop offset="1.000000" stop-color="#000000"/>
        <stop offset="1"  stop-color="#000000"/>
    </linearGradient>
    
    <linearGradient id="g43" x1="0.000000" y1="0.000000" x2="0.000002" y2="0.538066">
        <stop offset="0"  stop-color="#000000"/>
        <stop offset="1.000000" stop-color="#000000"/>
        <stop offset="1"  stop-color="#000000"/>
    </linearGradient>
    
    <linearGradient id="g44" x1="0.000000" y1="0.000000" x2="-0.178187" y2="0.543462">
        <stop offset="0"  stop-color="#000000"/>
        <stop offset="0.000009" stop-color="#000000"/>
        <stop offset="1"  stop-color="#ffffff"/>
    </linearGradient>
    </defs><polygon fill="url(#g0)" points="178.456524,349.123479 178.130997,360.000000 177.595654,360.000000"/>
    <polygon fill="url(#g1)" points="178.456524,349.123479 178.373451,351.899199 178.130997,360.000000"/>
    <polygon fill="url(#g2)" points="178.456524,349.123479 178.373451,351.899199 178.456524,349.123479"/>
    <polygon fill="url(#g3)" points="178.966782,343.454043 179.431927,338.285892 177.922131,349.091462"/>
    <polygon fill="url(#g4)" points="178.966782,343.454043 178.456524,349.123479 177.922131,349.091462"/>
    <polygon fill="url(#g5)" points="178.456524,349.123479 178.456524,349.123479 178.966782,343.454043"/>
    <polygon fill="url(#g6)" points="178.253494,364.092992 178.130997,360.000000 177.922131,370.908538"/>
    <polygon fill="url(#g7)" points="178.253494,364.092992 178.456524,370.876521 177.922131,370.908538"/>
    <polygon fill="url(#g8)" points="178.456524,370.876521 178.456524,370.876521 178.253494,364.092992"/>
    <polygon fill="url(#g9)" points="216.128700,471.253681 209.732780,462.450451 216.128700,471.253681"/>
    <polygon fill="url(#g10)" points="209.732780,462.450451 216.128700,471.253681 209.732780,462.450451"/>
    <polygon fill="url(#g11)" points="209.732780,462.450451 216.128700,471.253681 215.705200,471.581177"/>
    <polygon fill="url(#g12)" points="189.727901,423.904186 186.210926,413.606827 189.727901,423.904186"/>
    <polygon fill="url(#g13)" points="186.210926,413.606827 189.727901,423.904186 186.210926,413.606827"/>
    <polygon fill="url(#g14)" points="186.210926,413.606827 189.727901,423.904186 189.226685,424.092299"/>
    <polygon fill="url(#g15)" points="209.732780,462.450451 203.874779,453.280478 209.732780,462.450451"/>
    <polygon fill="url(#g16)" points="203.874779,453.280478 209.732780,462.450451 203.874767,453.280478"/>
    <polygon fill="url(#g17)" points="203.874767,453.280478 209.732780,462.450451 209.290455,462.752026"/>
    <polygon fill="url(#g18)" points="203.874779,453.280478 198.575661,443.776583 203.874767,453.280478"/>
    <polygon fill="url(#g19)" points="198.575661,443.776583 203.874767,453.280478 198.575661,443.776583"/>
    <polygon fill="url(#g20)" points="198.575661,443.776583 203.874767,453.280478 203.415207,453.555061"/>
    <polygon fill="url(#g21)" points="198.575661,443.776583 193.854401,433.972784 198.575661,443.776583"/>
    <polygon fill="url(#g22)" points="193.854401,433.972784 198.575661,443.776583 193.854401,433.972784"/>
    <polygon fill="url(#g23)" points="193.854401,433.972784 198.575661,443.776583 198.100491,444.023186"/>
    <polygon fill="url(#g24)" points="193.854401,433.972784 189.727901,423.904186 193.854401,433.972784"/>
    <polygon fill="url(#g25)" points="189.727901,423.904186 193.854401,433.972784 189.727901,423.904186"/>
    <polygon fill="url(#g26)" points="189.727901,423.904186 193.854401,433.972784 193.365337,434.190531"/>
    <polygon fill="url(#g27)" points="183.316074,403.117570 181.053715,392.473964 183.316086,403.117570"/>
    <polygon fill="url(#g28)" points="181.053715,392.473964 183.316086,403.117570 181.053703,392.473964"/>
    <polygon fill="url(#g29)" points="181.053703,392.473964 183.316086,403.117570 182.795986,403.244493"/>
    <polygon fill="url(#g30)" points="181.053715,392.473964 179.431927,381.714108 181.053703,392.473964"/>
    <polygon fill="url(#g31)" points="179.431927,381.714108 181.053703,392.473964 179.431915,381.714108"/>
    <polygon fill="url(#g32)" points="179.431915,381.714108 181.053703,392.473964 180.526966,392.569553"/>
    <polygon fill="url(#g33)" points="179.431927,381.714108 178.456524,370.876521 179.431915,381.714108"/>
    <polygon fill="url(#g34)" points="178.456524,370.876521 179.431915,381.714108 178.456524,370.876521"/>
    <polygon fill="url(#g35)" points="178.456524,370.876521 179.431915,381.714108 178.900406,381.778027"/>
    <polygon fill="url(#g36)" points="230.440876,487.635281 223.039650,479.658657 230.440876,487.635281"/>
    <polygon fill="url(#g37)" points="223.039650,479.658657 230.440876,487.635281 223.039650,479.658657"/>
    <polygon fill="url(#g38)" points="223.039650,479.658657 230.440876,487.635281 230.059502,488.010990"/>
    <polygon fill="url(#g39)" points="223.039650,479.658657 216.128700,471.253681 223.039650,479.658657"/>
    <polygon fill="url(#g40)" points="216.128700,471.253681 223.039650,479.658657 216.128700,471.253681"/>
    <polygon fill="url(#g41)" points="216.128700,471.253681 223.039650,479.658657 222.636486,480.010883"/>
    <polygon fill="url(#g42)" points="186.210926,413.606827 183.316074,403.117570 186.210926,413.606827"/>
    <polygon fill="url(#g43)" points="183.316074,403.117570 186.210926,413.606827 183.316086,403.117570"/>
    <polygon fill="url(#g44)" points="183.316086,403.117570 186.210926,413.606827 185.699364,413.764624"/>
    </svg>