<svg xmlns="http://www.w3.org/2000/svg" xmlns:xlink="http://www.w3.org/1999/xlink" width="4096" height="4096"><style>polyline { fill:none; stroke:#000000; stroke-width:0.250000; }polyline["window"] { stroke:red; }polygon { stroke:#000000; stroke-width:0.250000; }circle { stroke:none }circle[a] { fill:lime; }circle[b_alt] { fill:blue; }circle[c_alt] { fill:red; }</style><polyline points="178.456524,349.123479 178.373451,351.899199"/><polyline points="178.966782,343.454043 178.456524,349.123479"/><polyline points="283.550051,194.979584 273.817972,199.846973"/><polyline points="604.108749,182.644604 598.586998,175.503971"/><polyline points="604.108749,182.644604 609.193588,190.102695"/><polyline points="493.319412,483.702335 485.682873,491.453979"/><polyline points="186.316177,606.734573 193.849503,611.707283"/><polyline points="186.316177,606.734573 179.093731,601.320259"/><polyline points="178.253494,364.092992 178.130997,360.000000"/><polyline points="273.817972,520.153027 269.065498,517.503170"/><polyline points="593.065247,551.636662 587.126335,558.434303"/><polyline points="593.065247,551.636662 598.586998,544.496029"/><polyline points="500.478699,244.492126 493.319412,236.297665"/><polyline points="201.382805,103.320030 209.200024,98.806778"/><polyline points="201.382805,103.320030 193.849503,108.292717"/><polyline points="178.253494,364.092992 178.456524,370.876521"/><polyline points="319.497122,659.004272 310.592520,657.525558"/><polyline points="319.497122,659.004272 328.474216,659.947792"/><polyline points="535.314960,408.383858 532.107616,418.781816"/><polyline points="494.970039,90.135017 502.918774,94.412407"/><polyline points="494.970039,90.135017 486.779732,86.340660"/><polyline points="216.128700,248.746319 209.732780,257.549549"/><polyline points="178.130997,360.000000 178.373451,351.899199"/><polyline points="319.497122,60.995728 310.592520,62.474442"/><polyline points="319.497122,60.995728 328.474216,60.052208"/><polyline points="535.314960,311.616142 532.107616,301.218184"/><polyline points="494.970039,629.864983 502.918774,625.587593"/><polyline points="494.970039,629.864983 486.779732,633.659340"/><polyline points="216.128700,471.253681 209.732780,462.450451"/><polyline points="58.130997,360.000000 58.805054,341.954993"/><polyline points="324.852739,538.440468 314.244166,536.019138"/><polyline points="639.196701,474.425594 635.525276,482.671749"/><polyline points="639.196701,474.425594 642.368408,465.974625"/><polyline points="460.191078,208.216999 450.934502,202.496830"/><polyline points="132.771973,161.476845 138.911591,154.859917"/><polyline points="132.771973,161.476845 127.039055,168.449112"/><polyline points="460.191078,511.783001 450.934502,517.503170"/><polyline points="639.196701,245.574406 642.368408,254.025375"/><polyline points="639.196701,245.574406 635.525276,237.328251"/><polyline points="324.852739,181.559532 314.244166,183.980862"/><polyline points="121.306160,544.578644 127.039055,551.550888"/><polyline points="121.306160,544.578644 116.000496,537.276009"/><polyline points="541.820297,356.744392 541.787613,354.559304"/><polyline points="409.429602,62.341255 418.285978,64.085701"/><polyline points="409.429602,62.341255 400.484751,61.129578"/><polyline points="189.727901,296.095814 186.210926,306.393173"/><polyline points="541.869003,360.000000 541.834053,362.336242"/><polyline points="409.429602,657.658745 418.285978,655.914299"/><polyline points="409.429602,657.658745 400.484751,658.870422"/><polyline points="189.727901,423.904186 186.210926,413.606827"/><polyline points="121.306160,175.421356 127.039055,168.449112"/><polyline points="121.306160,175.421356 116.000496,182.723991"/><polyline points="273.817972,199.846973 269.065498,202.496830"/><polyline points="593.065247,168.363338 587.126335,161.565697"/><polyline points="593.065247,168.363338 598.586998,175.503971"/><polyline points="500.478699,475.507874 493.319412,483.702335"/><polyline points="201.382805,616.679970 209.200024,621.193222"/><polyline points="201.382805,616.679970 193.849503,611.707283"/><polyline points="178.966782,343.454043 179.431915,338.285892"/><polyline points="337.451314,59.108688 328.474216,60.052208"/><polyline points="337.451314,59.108688 346.468769,58.703728"/><polyline points="537.894722,322.187307 535.314960,311.616142"/><polyline points="478.589413,637.453720 486.779732,633.659340"/><polyline points="478.589413,637.453720 470.186840,640.751495"/><polyline points="209.732780,462.450451 203.874767,453.280478"/><polyline points="181.053703,327.526036 179.431915,338.285892"/><polyline points="355.486223,58.298744 346.468769,58.703728"/><polyline points="355.486223,58.298744 364.511757,58.433762"/><polyline points="539.837677,332.893833 537.894722,322.187307"/><polyline points="461.784267,644.049248 470.186840,640.751495"/><polyline points="461.784267,644.049248 453.199511,646.838608"/><polyline points="203.874767,453.280478 198.575661,443.776583"/><polyline points="183.316086,316.882430 181.053703,327.526036"/><polyline points="373.537291,58.568802 364.511757,58.433762"/><polyline points="373.537291,58.568802 382.538592,59.243362"/><polyline points="541.136833,343.697389 541.107594,343.454043"/><polyline points="539.837677,332.893833 541.107594,343.454043"/><polyline points="444.614759,649.627991 453.199511,646.838608"/><polyline points="444.614759,649.627991 435.878551,651.898933"/><polyline points="198.575661,443.776583 193.854401,433.972784"/><polyline points="186.210926,306.393173 183.316086,316.882430"/><polyline points="391.539897,59.917923 382.538592,59.243362"/><polyline points="391.539897,59.917923 400.484751,61.129578"/><polyline points="541.136833,343.697389 541.787613,354.559304"/><polyline points="427.142355,654.169876 435.878551,651.898933"/><polyline points="427.142355,654.169876 418.285978,655.914299"/><polyline points="193.854401,433.972784 189.727901,423.904186"/><polyline points="193.854401,286.027216 189.727901,296.095814"/><polyline points="427.142355,65.830124 418.285978,64.085701"/><polyline points="427.142355,65.830124 435.878551,68.101067"/><polyline points="541.787613,365.440696 541.834053,362.336242"/><polyline points="198.575661,276.223417 193.854401,286.027216"/><polyline points="444.614759,70.372009 435.878551,68.101067"/><polyline points="444.614759,70.372009 453.199511,73.161392"/><polyline points="541.136833,376.302611 539.837677,387.106167"/><polyline points="373.537291,661.431198 382.538592,660.756638"/><polyline points="373.537291,661.431198 364.511757,661.566238"/><polyline points="183.316086,403.117570 181.053703,392.473964"/><polyline points="203.874767,266.719522 198.575661,276.223417"/><polyline points="461.784267,75.950752 453.199511,73.161392"/><polyline points="461.784267,75.950752 470.186840,79.248505"/><polyline points="539.837677,387.106167 537.894722,397.812693"/><polyline points="355.486223,661.701256 364.511757,661.566238"/><polyline points="355.486223,661.701256 346.468769,661.296272"/><polyline points="181.053703,392.473964 179.431915,381.714108"/><polyline points="209.732780,257.549549 203.874767,266.719522"/><polyline points="478.589413,82.546280 470.186840,79.248505"/><polyline points="478.589413,82.546280 486.779732,86.340660"/><polyline points="537.894722,397.812693 535.314960,408.383858"/><polyline points="337.451314,660.891312 346.468769,661.296272"/><polyline points="337.451314,660.891312 328.474216,659.947792"/><polyline points="179.431915,381.714108 178.456524,370.876521"/><polyline points="223.039650,240.341343 216.128700,248.746319"/><polyline points="510.867508,98.689819 502.918774,94.412407"/><polyline points="510.867508,98.689819 518.546207,103.434929"/><polyline points="532.107616,418.781816 528.284168,428.969358"/><polyline points="301.687923,656.046844 310.592520,657.525558"/><polyline points="301.687923,656.046844 292.887691,654.038223"/><polyline points="230.440876,232.364719 223.039650,240.341343"/><polyline points="526.224907,108.180038 518.546207,103.434929"/><polyline points="526.224907,108.180038 533.606083,113.375839"/><polyline points="528.284168,428.969358 523.858315,438.910000"/><polyline points="284.087460,652.029625 292.887691,654.038223"/><polyline points="284.087460,652.029625 275.423103,649.498352"/><polyline points="238.305885,224.844990 230.440876,232.364719"/><polyline points="540.987270,118.571686 533.606083,113.375839"/><polyline points="540.987270,118.571686 548.044498,124.199661"/><polyline points="523.858315,438.910000 518.845871,448.568178"/><polyline points="266.758753,646.967056 275.423103,649.498352"/><polyline points="266.758753,646.967056 258.261280,643.922127"/><polyline points="246.606537,217.809093 238.305885,224.844990"/><polyline points="555.101738,129.827614 548.044498,124.199661"/><polyline points="555.101738,129.827614 561.809761,135.867554"/><polyline points="518.845871,448.568178 513.264816,457.909286"/><polyline points="249.763824,640.877197 258.261280,643.922127"/><polyline points="249.763824,640.877197 241.463665,637.329529"/><polyline points="255.313099,211.282207 246.606537,217.809093"/><polyline points="568.517807,141.907494 561.809761,135.867554"/><polyline points="568.517807,141.907494 574.852592,148.337769"/><polyline points="513.264816,457.909286 507.135109,466.899914"/><polyline points="233.163506,633.781883 241.463665,637.329529"/><polyline points="233.163506,633.781883 225.090374,629.744179"/><polyline points="264.394415,205.287655 255.313099,211.282207"/><polyline points="581.187424,154.768066 574.852592,148.337769"/><polyline points="581.187424,154.768066 587.126335,161.565697"/><polyline points="507.135109,466.899914 500.478699,475.507874"/><polyline points="217.017231,625.706497 225.090374,629.744179"/><polyline points="217.017231,625.706497 209.200024,621.193222"/><polyline points="269.065498,202.496830 264.394415,205.287655"/><polyline points="293.555792,190.702927 283.550051,194.979584"/><polyline points="614.278427,197.560764 609.193588,190.102695"/><polyline points="614.278427,197.560764 618.908134,205.309593"/><polyline points="485.682873,491.453979 477.596420,498.735054"/><polyline points="171.871284,595.905922 179.093731,601.320259"/><polyline points="171.871284,595.905922 164.985580,590.069366"/><polyline points="303.799387,187.032303 293.555792,190.702927"/><polyline points="623.537842,213.058422 618.908134,205.309593"/><polyline points="623.537842,213.058422 627.695847,221.070259"/><polyline points="477.596420,498.735054 469.089008,505.519489"/><polyline points="158.099876,584.232811 164.985580,590.069366"/><polyline points="158.099876,584.232811 151.575531,577.994911"/><polyline points="314.244166,183.980862 303.799387,187.032303"/><polyline points="631.853851,229.082085 627.695847,221.070259"/><polyline points="631.853851,229.082085 635.525276,237.328251"/><polyline points="469.089008,505.519489 460.191078,511.783001"/><polyline points="145.051186,571.756989 151.575531,577.994911"/><polyline points="145.051186,571.756989 138.911591,565.140083"/><polyline points="335.587132,179.776955 324.852739,181.559532"/><polyline points="645.540115,262.476334 642.368408,254.025375"/><polyline points="645.540115,262.476334 648.200729,271.101860"/><polyline points="450.934502,517.503170 441.352398,522.659523"/><polyline points="346.408912,178.639526 335.587132,179.776955"/><polyline points="650.861343,279.727375 648.200729,271.101860"/><polyline points="650.861343,279.727375 653.001343,288.496571"/><polyline points="441.352398,522.659523 431.479071,527.233612"/><polyline points="110.694832,529.973385 116.000496,537.276009"/><polyline points="110.694832,529.973385 105.835373,522.366520"/><polyline points="357.279348,178.151367 346.408912,178.639526"/><polyline points="655.141388,297.265766 653.001343,288.496571"/><polyline points="655.141388,297.265766 656.753151,306.147251"/><polyline points="431.479071,527.233612 421.349865,531.209026"/><polyline points="100.975937,514.759666 105.835373,522.366520"/><polyline points="100.975937,514.759666 96.580124,506.875797"/><polyline points="58.805054,341.954993 59.614197,332.964789"/><polyline points="368.159522,178.314125 357.279348,178.151367"/><polyline points="658.364891,315.028730 656.753151,306.147251"/><polyline points="658.364891,315.028730 659.442604,323.990705"/><polyline points="421.349865,531.209026 411.001047,534.571564"/><polyline points="92.184288,498.991951 96.580124,506.875797"/><polyline points="92.184288,498.991951 88.267822,490.859322"/><polyline points="60.423340,323.974583 61.768684,315.048858"/><polyline points="60.423340,323.974583 59.614197,332.964789"/><polyline points="379.010489,179.127308 368.159522,178.314125"/><polyline points="660.520317,332.952682 659.442604,323.990705"/><polyline points="660.520317,332.952682 661.060135,341.963068"/><polyline points="411.001047,534.571564 400.469659,537.309151"/><polyline points="84.351357,482.726681 88.267822,490.859322"/><polyline points="84.351357,482.726681 80.928268,474.374382"/><polyline points="63.113983,306.123133 64.990723,297.293844"/><polyline points="63.113983,306.123133 61.768684,315.048858"/><polyline points="389.793400,180.587952 379.010489,179.127308"/><polyline points="661.599953,350.973457 661.060135,341.963068"/><polyline points="661.599953,350.973457 661.599953,360.000000"/><polyline points="400.469659,537.309151 389.793400,539.412048"/><polyline points="77.505157,466.022083 80.928268,474.374382"/><polyline points="77.505157,466.022083 74.587715,457.480019"/><polyline points="66.867439,288.464550 69.268845,279.763304"/><polyline points="66.867439,288.464550 64.990723,297.293844"/><polyline points="400.469659,182.690849 389.793400,180.587952"/><polyline points="661.599953,369.026543 661.599953,360.000000"/><polyline points="661.599953,369.026543 661.060135,378.036932"/><polyline points="389.793400,539.412048 379.010489,540.872692"/><polyline points="71.670250,448.937948 74.587715,457.480019"/><polyline points="71.670250,448.937948 69.268845,440.236696"/><polyline points="71.670250,271.062052 74.587715,262.519981"/><polyline points="71.670250,271.062052 69.268845,279.763304"/><polyline points="411.001047,185.428436 400.469659,182.690849"/><polyline points="660.520317,387.047318 661.060135,378.036932"/><polyline points="660.520317,387.047318 659.442604,396.009295"/><polyline points="379.010489,540.872692 368.159522,541.685875"/><polyline points="66.867439,431.535450 69.268845,440.236696"/><polyline points="66.867439,431.535450 64.990723,422.706156"/><polyline points="77.505157,253.977917 80.928268,245.625618"/><polyline points="77.505157,253.977917 74.587715,262.519981"/><polyline points="421.349865,188.790974 411.001047,185.428436"/><polyline points="658.364891,404.971270 659.442604,396.009295"/><polyline points="658.364891,404.971270 656.753151,413.852749"/><polyline points="368.159522,541.685875 357.279348,541.848633"/><polyline points="63.113983,413.876867 64.990723,422.706156"/><polyline points="63.113983,413.876867 61.768684,404.951142"/><polyline points="84.351357,237.273319 88.267822,229.140678"/><polyline points="84.351357,237.273319 80.928268,245.625618"/><polyline points="431.479071,192.766388 421.349865,188.790974"/><polyline points="655.141388,422.734234 656.753151,413.852749"/><polyline points="655.141388,422.734234 653.001343,431.503429"/><polyline points="357.279348,541.848633 346.408912,541.360474"/><polyline points="60.423340,396.025417 61.768684,404.951142"/><polyline points="60.423340,396.025417 59.614197,387.035211"/><polyline points="92.184288,221.008049 96.580124,213.124203"/><polyline points="92.184288,221.008049 88.267822,229.140678"/><polyline points="441.352398,197.340477 431.479071,192.766388"/><polyline points="650.861343,440.272625 653.001343,431.503429"/><polyline points="650.861343,440.272625 648.200729,448.898140"/><polyline points="346.408912,541.360474 335.587132,540.223045"/><polyline points="58.805054,378.045007 59.614197,387.035211"/><polyline points="58.805054,378.045007 58.130997,360.000000"/><polyline points="100.975937,205.240334 105.835373,197.633480"/><polyline points="100.975937,205.240334 96.580124,213.124203"/><polyline points="450.934502,202.496830 441.352398,197.340477"/><polyline points="645.540115,457.523666 648.200729,448.898140"/><polyline points="645.540115,457.523666 642.368408,465.974625"/><polyline points="335.587132,540.223045 324.852739,538.440468"/><polyline points="110.694832,190.026615 116.000496,182.723991"/><polyline points="110.694832,190.026615 105.835373,197.633480"/><polyline points="469.089008,214.480511 460.191078,208.216999"/><polyline points="631.853851,490.917915 635.525276,482.671749"/><polyline points="631.853851,490.917915 627.695847,498.929741"/><polyline points="314.244166,536.019138 303.799387,532.967697"/><polyline points="477.596420,221.264946 469.089008,214.480511"/><polyline points="623.537842,506.941578 627.695847,498.929741"/><polyline points="623.537842,506.941578 618.908134,514.690407"/><polyline points="303.799387,532.967697 293.555792,529.297073"/><polyline points="145.051186,148.243011 151.575531,142.005089"/><polyline points="145.051186,148.243011 138.911591,154.859917"/><polyline points="485.682873,228.546021 477.596420,221.264946"/><polyline points="614.278427,522.439236 618.908134,514.690407"/><polyline points="614.278427,522.439236 609.193588,529.897305"/><polyline points="293.555792,529.297073 283.550051,525.020416"/><polyline points="158.099876,135.767189 164.985580,129.930634"/><polyline points="158.099876,135.767189 151.575531,142.005089"/><polyline points="493.319412,236.297665 485.682873,228.546021"/><polyline points="604.108749,537.355396 609.193588,529.897305"/><polyline points="604.108749,537.355396 598.586998,544.496029"/><polyline points="283.550051,525.020416 273.817972,520.153027"/><polyline points="171.871284,124.094078 179.093731,118.679741"/><polyline points="171.871284,124.094078 164.985580,129.930634"/><polyline points="186.316177,113.265427 193.849503,108.292717"/><polyline points="186.316177,113.265427 179.093731,118.679741"/><polyline points="507.135109,253.100086 500.478699,244.492126"/><polyline points="581.187424,565.231934 587.126335,558.434303"/><polyline points="581.187424,565.231934 574.852592,571.662231"/><polyline points="269.065498,517.503170 264.394415,514.712345"/><polyline points="513.264816,262.090714 507.135109,253.100086"/><polyline points="568.517807,578.092506 574.852592,571.662231"/><polyline points="568.517807,578.092506 561.809761,584.132446"/><polyline points="255.313099,508.717793 246.606537,502.190907"/><polyline points="217.017231,94.293503 225.090374,90.255821"/><polyline points="217.017231,94.293503 209.200024,98.806778"/><polyline points="518.845871,271.431822 513.264816,262.090714"/><polyline points="555.101738,590.172386 561.809761,584.132446"/><polyline points="555.101738,590.172386 548.044498,595.800339"/><polyline points="246.606537,502.190907 238.305885,495.155010"/><polyline points="233.163506,86.218117 241.463665,82.670471"/><polyline points="233.163506,86.218117 225.090374,90.255821"/><polyline points="523.858315,281.090000 518.845871,271.431822"/><polyline points="540.987270,601.428314 548.044498,595.800339"/><polyline points="540.987270,601.428314 533.606083,606.624161"/><polyline points="238.305885,495.155010 230.440876,487.635281"/><polyline points="249.763824,79.122803 258.261280,76.077873"/><polyline points="249.763824,79.122803 241.463665,82.670471"/><polyline points="528.284168,291.030642 523.858315,281.090000"/><polyline points="526.224907,611.819962 533.606083,606.624161"/><polyline points="526.224907,611.819962 518.546207,616.565071"/><polyline points="230.440876,487.635281 223.039650,479.658657"/><polyline points="266.758753,73.032944 275.423103,70.501648"/><polyline points="266.758753,73.032944 258.261280,76.077873"/><polyline points="532.107616,301.218184 528.284168,291.030642"/><polyline points="510.867508,621.310181 518.546207,616.565071"/><polyline points="510.867508,621.310181 502.918774,625.587593"/><polyline points="223.039650,479.658657 216.128700,471.253681"/><polyline points="284.087460,67.970375 292.887691,65.961777"/><polyline points="284.087460,67.970375 275.423103,70.501648"/><polyline points="301.687923,63.953156 310.592520,62.474442"/><polyline points="301.687923,63.953156 292.887691,65.961777"/><polyline points="178.130997,360.000000 178.130997,360.000000"/><polyline points="541.820297,356.744392 541.869003,360.000000"/><polyline points="391.539897,660.082077 400.484751,658.870422"/><polyline points="391.539897,660.082077 382.538592,660.756638"/><polyline points="186.210926,413.606827 183.316086,403.117570"/><polyline points="541.787613,365.440696 541.136833,376.302611"/><polyline points="132.771973,558.523155 138.911591,565.140083"/><polyline points="132.771973,558.523155 127.039055,551.550888"/><polyline points="264.394415,514.712345 255.313099,508.717793"/></svg>